<svg width="48" height="48" viewBox="0 0 48 48" fill="none" xmlns="http://www.w3.org/2000/svg">
<rect width="48" height="48" rx="24" fill="#5AB4C5"/>
<path d="M30.467 27.2359C31.7339 27.2359 32.761 26.2089 32.761 24.9419C32.761 23.675 31.7339 22.6479 30.467 22.6479C29.2001 22.6479 28.173 23.675 28.173 24.9419C28.173 26.2089 29.2001 27.2359 30.467 27.2359Z" stroke="white" stroke-width="1.8" stroke-linecap="round" stroke-linejoin="round"/>
<path d="M31.791 29.7051C32.2546 29.7049 32.7137 29.7962 33.142 29.9735C33.5704 30.1509 33.9596 30.4109 34.2874 30.7387C34.6152 31.0665 34.8752 31.4557 35.0526 31.884C35.2299 32.3124 35.3211 32.7715 35.321 33.2351V35.0001H25.613V33.2351C25.6129 32.7715 25.7041 32.3124 25.8814 31.884C26.0588 31.4557 26.3188 31.0665 26.6466 30.7387C26.9744 30.4109 27.3636 30.1509 27.792 29.9735C28.2203 29.7962 28.6794 29.7049 29.143 29.7051H31.791Z" stroke="white" stroke-width="1.8" stroke-linecap="round" stroke-linejoin="round"/>
<path d="M29.151 12.7188H33.1744V16.8276" stroke="white" stroke-width="1.8" stroke-linecap="round"/>
<mask id="mask0_3_1650" style="mask-type:luminance" maskUnits="userSpaceOnUse" x="11" y="12" width="24" height="11">
<path d="M11.001 12.2119H34.085V22.0819H11.001V12.2119Z" fill="white"/>
</mask>
<g mask="url(#mask0_3_1650)">
<path d="M11.901 22.0817C11.7166 22.0818 11.5366 22.0253 11.3853 21.9197C11.2341 21.8142 11.1189 21.6647 11.0554 21.4916C10.9919 21.3184 10.9832 21.13 11.0303 20.9517C11.0774 20.7734 11.1782 20.6138 11.319 20.4947L16.778 15.8657C16.9402 15.728 17.1318 15.6293 17.3381 15.5773C17.5444 15.5253 17.7599 15.5213 17.968 15.5657L25.879 17.2577C26.0831 17.3016 26.2945 17.2988 26.4974 17.2496C26.7004 17.2005 26.8896 17.1061 27.051 16.9737L32.615 12.4117C32.8006 12.2605 33.0387 12.1893 33.2769 12.2137C33.5151 12.2381 33.7338 12.3561 33.885 12.5417C34.0362 12.7274 34.1074 12.9655 34.083 13.2036C34.0586 13.4418 33.9406 13.6605 33.755 13.8117L27.522 18.9117C27.3605 19.044 27.1713 19.1382 26.9684 19.1873C26.7655 19.2365 26.5541 19.2393 26.35 19.1957L18.456 17.5117C18.2479 17.4674 18.0324 17.4714 17.8261 17.5234C17.6198 17.5754 17.4282 17.674 17.266 17.8117L12.483 21.8677C12.3207 22.0062 12.1143 22.0821 11.901 22.0817Z" fill="white"/>
</g>
<path d="M13.3422 28.6841V34.999" stroke="white" stroke-width="1.8" stroke-linecap="round"/>
<path d="M17.5222 26.4219V34.9988" stroke="white" stroke-width="1.8" stroke-linecap="round"/>
<path d="M21.7002 22.647V34.999" stroke="white" stroke-width="1.8" stroke-linecap="round"/>
</svg>
